{
  "asset": {
    "generator": "Khronos glTF Blender I/O v5.1.20",
    "version": "2.0"
  },
  "scene": 0,
  "scenes": [
    {
      "name": "Scene",
      "nodes": [
        0
      ]
    }
  ],
  "nodes": [
    {
      "mesh": 0,
      "name": "circuit_board"
    }
  ],
  "materials": [
    {
      "doubleSided": true,
      "name": "circuit_board",
      "normalTexture": {
        "index": 0
      },
      "pbrMetallicRoughness": {
        "baseColorTexture": {
          "index": 1
        },
        "metallicRoughnessTexture": {
          "index": 2
        }
      }
    },
    {
      "alphaMode": "BLEND",
      "doubleSided": true,
      "name": "circuit_board_alpha",
      "normalTexture": {
        "index": 3
      },
      "pbrMetallicRoughness": {
        "baseColorTexture": {
          "index": 4
        },
        "metallicRoughnessTexture": {
          "index": 5
        }
      }
    }
  ],
  "meshes": [
    {
      "name": "Circuit Trim Color.003",
      "primitives": [
        {
          "attributes": {
            "POSITION": 0,
            "NORMAL": 1,
            "TEXCOORD_0": 2
          },
          "indices": 3,
          "material": 0
        },
        {
          "attributes": {
            "POSITION": 4,
            "NORMAL": 5,
            "TEXCOORD_0": 6
          },
          "indices": 7,
          "material": 1
        }
      ]
    }
  ],
  "textures": [
    {
      "sampler": 0,
      "source": 0
    },
    {
      "sampler": 0,
      "source": 1
    },
    {
      "sampler": 0,
      "source": 2
    },
    {
      "sampler": 0,
      "source": 0
    },
    {
      "sampler": 0,
      "source": 3
    },
    {
      "sampler": 0,
      "source": 2
    }
  ],
  "images": [
    {
      "mimeType": "image/jpeg",
      "name": "circuit_board_nor_gl",
      "uri": "textures/circuit_board_nor_gl_1k.jpg"
    },
    {
      "mimeType": "image/jpeg",
      "name": "circuit_board_diff",
      "uri": "textures/circuit_board_diff_1k.jpg"
    },
    {
      "mimeType": "image/jpeg",
      "name": "circuit_board_metal-circuit_board_rough",
      "uri": "textures/circuit_board_arm_1k.jpg"
    },
    {
      "mimeType": "image/jpeg",
      "name": "circuit_board_diff-circuit_board_alpha",
      "uri": "textures/circuit_board_diff_1k.jpg"
    }
  ],
  "accessors": [
    {
      "bufferView": 0,
      "componentType": 5126,
      "count": 15593,
      "max": [
        0.1968916952610016,
        0.07225437462329865,
        0.198769211769104
      ],
      "min": [
        -0.2066141664981842,
        -0.006041519343852997,
        -0.1985270082950592
      ],
      "type": "VEC3"
    },
    {
      "bufferView": 1,
      "componentType": 5126,
      "count": 15593,
      "type": "VEC3"
    },
    {
      "bufferView": 2,
      "componentType": 5126,
      "count": 15593,
      "type": "VEC2"
    },
    {
      "bufferView": 3,
      "componentType": 5123,
      "count": 39270,
      "type": "SCALAR"
    },
    {
      "bufferView": 4,
      "componentType": 5126,
      "count": 2680,
      "max": [
        0.19397158920764923,
        0.06273667514324188,
        0.19861535727977753
      ],
      "min": [
        -0.19397155940532684,
        0,
        -0.19861522316932678
      ],
      "type": "VEC3"
    },
    {
      "bufferView": 5,
      "componentType": 5126,
      "count": 2680,
      "type": "VEC3"
    },
    {
      "bufferView": 6,
      "componentType": 5126,
      "count": 2680,
      "type": "VEC2"
    },
    {
      "bufferView": 7,
      "componentType": 5123,
      "count": 4020,
      "type": "SCALAR"
    }
  ],
  "bufferViews": [
    {
      "buffer": 0,
      "byteLength": 187116,
      "byteOffset": 0,
      "target": 34962
    },
    {
      "buffer": 0,
      "byteLength": 187116,
      "byteOffset": 187116,
      "target": 34962
    },
    {
      "buffer": 0,
      "byteLength": 124744,
      "byteOffset": 374232,
      "target": 34962
    },
    {
      "buffer": 0,
      "byteLength": 78540,
      "byteOffset": 498976,
      "target": 34963
    },
    {
      "buffer": 0,
      "byteLength": 32160,
      "byteOffset": 577516,
      "target": 34962
    },
    {
      "buffer": 0,
      "byteLength": 32160,
      "byteOffset": 609676,
      "target": 34962
    },
    {
      "buffer": 0,
      "byteLength": 21440,
      "byteOffset": 641836,
      "target": 34962
    },
    {
      "buffer": 0,
      "byteLength": 8040,
      "byteOffset": 663276,
      "target": 34963
    }
  ],
  "samplers": [
    {
      "magFilter": 9729,
      "minFilter": 9987
    }
  ],
  "buffers": [
    {
      "byteLength": 671316,
      "uri": "circuit_board.bin"
    }
  ]
}