{
  "asset": {
    "generator": "Khronos glTF Blender I/O v5.1.20",
    "version": "2.0"
  },
  "scene": 0,
  "scenes": [
    {
      "name": "Scene",
      "nodes": [
        0,
        1
      ]
    }
  ],
  "nodes": [
    {
      "mesh": 0,
      "name": "projector_screen",
      "translation": [
        0,
        1.137282133102417,
        0.002231590449810028
      ]
    },
    {
      "mesh": 1,
      "name": "projector_screen_frame"
    }
  ],
  "materials": [
    {
      "doubleSided": true,
      "name": "projector_screen_frame",
      "normalTexture": {
        "index": 0
      },
      "pbrMetallicRoughness": {
        "baseColorTexture": {
          "index": 1
        },
        "metallicRoughnessTexture": {
          "index": 2
        }
      }
    },
    {
      "doubleSided": true,
      "name": "projector_screen",
      "normalTexture": {
        "index": 3
      },
      "pbrMetallicRoughness": {
        "baseColorTexture": {
          "index": 4
        },
        "metallicRoughnessTexture": {
          "index": 5
        }
      }
    }
  ],
  "meshes": [
    {
      "name": "Plane.033",
      "primitives": [
        {
          "attributes": {
            "POSITION": 0,
            "NORMAL": 1,
            "TEXCOORD_0": 2
          },
          "indices": 3,
          "material": 0
        },
        {
          "attributes": {
            "POSITION": 4,
            "NORMAL": 5,
            "TEXCOORD_0": 6
          },
          "indices": 7,
          "material": 1
        }
      ]
    },
    {
      "name": "Plane.015",
      "primitives": [
        {
          "attributes": {
            "POSITION": 8,
            "NORMAL": 9,
            "TEXCOORD_0": 10
          },
          "indices": 11,
          "material": 0
        }
      ]
    }
  ],
  "textures": [
    {
      "sampler": 0,
      "source": 0
    },
    {
      "sampler": 0,
      "source": 1
    },
    {
      "sampler": 0,
      "source": 2
    },
    {
      "sampler": 0,
      "source": 3
    },
    {
      "sampler": 0,
      "source": 4
    },
    {
      "sampler": 0,
      "source": 5
    }
  ],
  "images": [
    {
      "mimeType": "image/jpeg",
      "name": "projector_screen_frame_nor_gl",
      "uri": "textures/projector_screen_frame_nor_gl_1k.jpg"
    },
    {
      "mimeType": "image/jpeg",
      "name": "projector_screen_frame_diff",
      "uri": "textures/projector_screen_frame_diff_1k.jpg"
    },
    {
      "mimeType": "image/jpeg",
      "name": "projector_screen_frame_metal-projector_screen_frame_rough",
      "uri": "textures/projector_screen_frame_arm_1k.jpg"
    },
    {
      "mimeType": "image/jpeg",
      "name": "projector_screen_nor_gl",
      "uri": "textures/projector_screen_nor_gl_1k.jpg"
    },
    {
      "mimeType": "image/jpeg",
      "name": "projector_screen_diff",
      "uri": "textures/projector_screen_diff_1k.jpg"
    },
    {
      "mimeType": "image/jpeg",
      "name": "projector_screen_metal-projector_screen_rough",
      "uri": "textures/projector_screen_arm_1k.jpg"
    }
  ],
  "accessors": [
    {
      "bufferView": 0,
      "componentType": 5126,
      "count": 3490,
      "max": [
        0.5467833280563354,
        0.6621821522712708,
        0.08744814991950989
      ],
      "min": [
        -0.5467833876609802,
        -0.4367085099220276,
        -0.050488490611314774
      ],
      "type": "VEC3"
    },
    {
      "bufferView": 1,
      "componentType": 5126,
      "count": 3490,
      "type": "VEC3"
    },
    {
      "bufferView": 2,
      "componentType": 5126,
      "count": 3490,
      "type": "VEC2"
    },
    {
      "bufferView": 3,
      "componentType": 5123,
      "count": 14100,
      "type": "SCALAR"
    },
    {
      "bufferView": 4,
      "componentType": 5126,
      "count": 669,
      "max": [
        0.5122672319412231,
        0.6039324402809143,
        0.06697434186935425
      ],
      "min": [
        -0.5120680928230286,
        -0.41230660676956177,
        0.02990555763244629
      ],
      "type": "VEC3"
    },
    {
      "bufferView": 5,
      "componentType": 5126,
      "count": 669,
      "type": "VEC3"
    },
    {
      "bufferView": 6,
      "componentType": 5126,
      "count": 669,
      "type": "VEC2"
    },
    {
      "bufferView": 7,
      "componentType": 5123,
      "count": 2754,
      "type": "SCALAR"
    },
    {
      "bufferView": 8,
      "componentType": 5126,
      "count": 2610,
      "max": [
        0.5280041694641113,
        1.1641931533813477,
        0.3095262944698334
      ],
      "min": [
        -0.5280041694641113,
        -5.960464477539063e-8,
        -0.6062744855880737
      ],
      "type": "VEC3"
    },
    {
      "bufferView": 9,
      "componentType": 5126,
      "count": 2610,
      "type": "VEC3"
    },
    {
      "bufferView": 10,
      "componentType": 5126,
      "count": 2610,
      "type": "VEC2"
    },
    {
      "bufferView": 11,
      "componentType": 5123,
      "count": 9327,
      "type": "SCALAR"
    }
  ],
  "bufferViews": [
    {
      "buffer": 0,
      "byteLength": 41880,
      "byteOffset": 0,
      "target": 34962
    },
    {
      "buffer": 0,
      "byteLength": 41880,
      "byteOffset": 41880,
      "target": 34962
    },
    {
      "buffer": 0,
      "byteLength": 27920,
      "byteOffset": 83760,
      "target": 34962
    },
    {
      "buffer": 0,
      "byteLength": 28200,
      "byteOffset": 111680,
      "target": 34963
    },
    {
      "buffer": 0,
      "byteLength": 8028,
      "byteOffset": 139880,
      "target": 34962
    },
    {
      "buffer": 0,
      "byteLength": 8028,
      "byteOffset": 147908,
      "target": 34962
    },
    {
      "buffer": 0,
      "byteLength": 5352,
      "byteOffset": 155936,
      "target": 34962
    },
    {
      "buffer": 0,
      "byteLength": 5508,
      "byteOffset": 161288,
      "target": 34963
    },
    {
      "buffer": 0,
      "byteLength": 31320,
      "byteOffset": 166796,
      "target": 34962
    },
    {
      "buffer": 0,
      "byteLength": 31320,
      "byteOffset": 198116,
      "target": 34962
    },
    {
      "buffer": 0,
      "byteLength": 20880,
      "byteOffset": 229436,
      "target": 34962
    },
    {
      "buffer": 0,
      "byteLength": 18654,
      "byteOffset": 250316,
      "target": 34963
    }
  ],
  "samplers": [
    {
      "magFilter": 9729,
      "minFilter": 9987
    }
  ],
  "buffers": [
    {
      "byteLength": 268972,
      "uri": "projector_screen.bin"
    }
  ]
}