{
  "accessors": [
    {
      "bufferView": 3,
      "componentType": 5126,
      "count": 547,
      "max": [
        0.3635079562664032,
        1.865950107574463,
        0.2615596354007721
      ],
      "min": [
        -0.3548322319984436,
        -0.001607101527042687,
        -0.21070700883865356
      ],
      "type": "VEC3"
    },
    {
      "bufferView": 3,
      "byteOffset": 6564,
      "componentType": 5126,
      "count": 547,
      "max": [
        0.9995469450950623,
        0.9190141558647156,
        0.9999140501022339
      ],
      "min": [
        -0.9995469450950623,
        -1.0,
        -0.9985839128494263
      ],
      "type": "VEC3"
    },
    {
      "bufferView": 2,
      "componentType": 5126,
      "count": 547,
      "max": [
        0.99527508020401,
        0.967628538608551
      ],
      "min": [
        0.004949371330440044,
        0.0047821588814258575
      ],
      "type": "VEC2"
    },
    {
      "bufferView": 1,
      "componentType": 5125,
      "count": 1893,
      "type": "SCALAR"
    },
    {
      "bufferView": 5,
      "componentType": 5126,
      "count": 21,
      "max": [
        100.0,
        0.38466665148735046,
        0.13263338804244995,
        0.0,
        0.3240775465965271,
        100.0,
        0.5895706415176392,
        0.0,
        0.329110324382782,
        0.12792116403579712,
        100.0,
        0.0,
        0.6444940567016602,
        1.273673176765442,
        0.029438775032758713,
        1.0
      ],
      "min": [
        -1.0,
        -0.3846668601036072,
        -0.026382282376289368,
        0.0,
        -0.3970542252063751,
        -0.9991567134857178,
        -0.9959278702735901,
        0.0,
        -0.08892744779586792,
        -0.9959278106689453,
        -1.0,
        0.0,
        -0.6504329442977905,
        -1.529606819152832,
        -0.5351961851119995,
        1.0
      ],
      "type": "MAT4"
    },
    {
      "bufferView": 0,
      "componentType": 5123,
      "count": 547,
      "type": "VEC4"
    },
    {
      "bufferView": 4,
      "componentType": 5126,
      "count": 547,
      "max": [
        1.0,
        0.4961165189743042,
        0.20334932208061218,
        0.08395428210496902
      ],
      "min": [
        0.42751699686050415,
        0.0,
        0.0,
        0.0
      ],
      "type": "VEC4"
    }
  ],
  "asset": {
    "extras": {
      "author": "Elbolillo (https://sketchfab.com/Elbolilloduro)",
      "license": "CC-BY-4.0 (http://creativecommons.org/licenses/by/4.0/)",
      "source": "https://sketchfab.com/3d-models/character-ghost-1d008085494f47fb81e408b506025d0d",
      "title": "Character Ghost"
    },
    "generator": "Sketchfab-15.42.0",
    "version": "2.0"
  },
  "bufferViews": [
    {
      "buffer": 0,
      "byteLength": 4376,
      "byteStride": 8,
      "name": "shortBufferViews",
      "target": 34962
    },
    {
      "buffer": 0,
      "byteLength": 7572,
      "byteOffset": 4376,
      "name": "floatBufferViews",
      "target": 34963
    },
    {
      "buffer": 0,
      "byteLength": 4376,
      "byteOffset": 11948,
      "byteStride": 8,
      "name": "floatBufferViews",
      "target": 34962
    },
    {
      "buffer": 0,
      "byteLength": 13128,
      "byteOffset": 16324,
      "byteStride": 12,
      "name": "floatBufferViews",
      "target": 34962
    },
    {
      "buffer": 0,
      "byteLength": 8752,
      "byteOffset": 29452,
      "byteStride": 16,
      "name": "floatBufferViews",
      "target": 34962
    },
    {
      "buffer": 0,
      "byteLength": 1344,
      "byteOffset": 38204,
      "name": "floatBufferViews"
    }
  ],
  "buffers": [
    {
      "byteLength": 39548,
      "uri": "scene.bin"
    }
  ],
  "extensionsUsed": [
    "KHR_materials_specular"
  ],
  "images": [
    {
      "uri": "textures/Ghost_baseColor.png"
    }
  ],
  "materials": [
    {
      "doubleSided": true,
      "extensions": {
        "KHR_materials_specular": {
          "specularColorFactor": [
            1.0,
            1.0,
            1.0
          ],
          "specularFactor": 0.0
        }
      },
      "name": "Ghost",
      "pbrMetallicRoughness": {
        "baseColorTexture": {
          "index": 0
        },
        "metallicFactor": 0.0
      }
    }
  ],
  "meshes": [
    {
      "name": "Character_Ghost_Ghost_0",
      "primitives": [
        {
          "attributes": {
            "JOINTS_0": 5,
            "NORMAL": 1,
            "POSITION": 0,
            "TEXCOORD_0": 2,
            "WEIGHTS_0": 6
          },
          "indices": 3,
          "material": 0,
          "mode": 4
        }
      ]
    }
  ],
  "nodes": [
    {
      "children": [
        1
      ],
      "matrix": [
        1.0,
        0.0,
        0.0,
        0.0,
        0.0,
        2.220446049250313e-16,
        -1.0,
        0.0,
        0.0,
        1.0,
        2.220446049250313e-16,
        0.0,
        0.0,
        0.0,
        0.0,
        1.0
      ],
      "name": "Sketchfab_model"
    },
    {
      "children": [
        2
      ],
      "matrix": [
        0.009999999776482582,
        0.0,
        0.0,
        0.0,
        0.0,
        0.0,
        0.009999999776482582,
        0.0,
        0.0,
        -0.009999999776482582,
        0.0,
        0.0,
        0.0,
        0.0,
        0.0,
        1.0
      ],
      "name": "a10d2931ecae4a089493a5483a45134e.fbx"
    },
    {
      "children": [
        3
      ],
      "name": "RootNode"
    },
    {
      "children": [
        4
      ],
      "matrix": [
        -99.9999999999996,
        -8.74227798045649e-06,
        0.0,
        0.0,
        2.7443451200815535e-12,
        -3.139164788112936e-05,
        99.99999999999507,
        0.0,
        -8.742277980456057e-06,
        99.9999999999947,
        3.139164788112936e-05,
        0.0,
        0.0,
        0.0,
        0.0,
        1.0
      ],
      "name": "Armature_Character_Ghost"
    },
    {
      "children": [
        5,
        27,
        26
      ],
      "name": "Object_4"
    },
    {
      "children": [
        6,
        25
      ],
      "name": "_rootJoint"
    },
    {
      "children": [
        7,
        9,
        12,
        15,
        20
      ],
      "name": "Spine_00",
      "rotation": [
        0.7071068286895752,
        -9.534983870480278e-31,
        -9.534974466525472e-31,
        0.7071067094802856
      ],
      "translation": [
        1.3234889800848443e-23,
        -1.3783574104309082e-07,
        0.849113941192627
      ]
    },
    {
      "children": [
        8
      ],
      "name": "Neck_01",
      "rotation": [
        -0.0,
        6.478481797184039e-31,
        9.78223588754217e-38,
        1.0
      ],
      "translation": [
        -2.6469779601696886e-23,
        0.4702911376953125,
        0.0
      ]
    },
    {
      "name": "Head_02",
      "rotation": [
        -1.3234889800848443e-23,
        -9.299435491276066e-31,
        -6.617444900424222e-24,
        1.0
      ],
      "translation": [
        -1.3234889800848443e-23,
        0.21020174026489258,
        0.0
      ]
    },
    {
      "children": [
        10
      ],
      "name": "R_Leg_03",
      "rotation": [
        0.9997890591621399,
        -0.004686778411269188,
        0.00042623342596925795,
        -0.019992055371403694
      ],
      "scale": [
        1.0,
        1.0,
        1.0000004768371582
      ],
      "translation": [
        -0.09800213575363159,
        -0.07866477966308594,
        0.006013859063386917
      ]
    },
    {
      "children": [
        11
      ],
      "name": "R_Leg_01_04",
      "rotation": [
        0.04412996768951416,
        -0.0002998717245645821,
        -0.00463100615888834,
        0.9990150332450867
      ],
      "scale": [
        1.0,
        1.0000001192092896,
        1.0
      ],
      "translation": [
        -6.126811058493331e-09,
        0.30101439356803894,
        1.811713445931673e-09
      ]
    },
    {
      "name": "R_Foot_05",
      "rotation": [
        -0.7204139828681946,
        1.7316862965799373e-07,
        -0.0006145477527752519,
        0.6935440301895142
      ],
      "scale": [
        1.0000001192092896,
        1.0,
        1.0
      ],
      "translation": [
        -3.142304194625467e-10,
        0.43819719552993774,
        3.41970007866621e-09
      ]
    },
    {
      "children": [
        13
      ],
      "name": "L_Leg_06",
      "rotation": [
        0.9997890591621399,
        -0.004686778411269188,
        0.00042623342596925795,
        -0.019992055371403694
      ],
      "scale": [
        1.0,
        1.0,
        1.0000004768371582
      ],
      "translation": [
        0.11341746896505356,
        -0.07866477966308594,
        0.006013859063386917
      ]
    },
    {
      "children": [
        14
      ],
      "name": "L_Leg_01_07",
      "rotation": [
        0.04412997514009476,
        -0.00029987958259880543,
        -0.004630998242646456,
        0.9990150332450867
      ],
      "scale": [
        1.0,
        1.0000001192092896,
        1.0
      ],
      "translation": [
        1.323769538430497e-09,
        0.30101433396339417,
        4.147295840084553e-10
      ]
    },
    {
      "name": "L_Foot_08",
      "rotation": [
        -0.720413863658905,
        -4.9386564171527425e-08,
        -0.0006142822676338255,
        0.6935441493988037
      ],
      "scale": [
        1.0000001192092896,
        1.0000001192092896,
        1.0000001192092896
      ],
      "translation": [
        -1.4662418834632263e-08,
        0.43819722533226013,
        -1.4260876923799515e-09
      ]
    },
    {
      "children": [
        16
      ],
      "name": "R_Shoulder_09",
      "rotation": [
        -2.2128895693640516e-07,
        -7.096698340092189e-08,
        0.9864153861999512,
        0.16427023708820343
      ],
      "scale": [
        0.9999998211860657,
        1.0,
        1.0
      ],
      "translation": [
        -0.20321983098983765,
        0.5646858215332031,
        1.1175870895385742e-08
      ]
    },
    {
      "children": [
        17
      ],
      "name": "R_Forearm_010",
      "rotation": [
        0.08570940792560577,
        0.007542052306234837,
        0.08733198046684265,
        0.9924566149711609
      ],
      "scale": [
        0.9999999403953552,
        0.9999998807907104,
        1.0
      ],
      "translation": [
        -3.2307490016592055e-14,
        0.33275869488716125,
        7.105427357601002e-15
      ]
    },
    {
      "children": [
        18,
        19
      ],
      "name": "R_Hand_011",
      "rotation": [
        0.008843705989420414,
        0.030367277562618256,
        0.12968438863754272,
        0.9910508394241333
      ],
      "scale": [
        0.9999998807907104,
        1.0000001192092896,
        1.0
      ],
      "translation": [
        -1.5213728943308524e-08,
        0.21173977851867676,
        -1.6763806343078613e-08
      ]
    },
    {
      "name": "R_Hand_01_012",
      "rotation": [
        -0.020224185660481453,
        0.0210987888276577,
        0.07422173023223877,
        0.9968134164810181
      ],
      "scale": [
        1.0,
        1.0000001192092896,
        1.0
      ],
      "translation": [
        -2.0256265997886658e-08,
        0.09350249916315079,
        1.0244548320770264e-08
      ]
    },
    {
      "name": "R_Hand_02_013",
      "rotation": [
        0.17361626029014587,
        0.005494182463735342,
        0.156401127576828,
        0.9722992777824402
      ],
      "scale": [
        1.0,
        1.0,
        1.0000001192092896
      ],
      "translation": [
        -0.022245289757847786,
        0.03949853032827377,
        0.031230252236127853
      ]
    },
    {
      "children": [
        21
      ],
      "name": "L_Shoulder_014",
      "rotation": [
        -1.4945545956379647e-07,
        -1.3270798149278562e-07,
        0.9864153861999512,
        -0.16427023708820343
      ],
      "scale": [
        0.9999998211860657,
        1.0,
        1.0
      ],
      "translation": [
        0.19694209098815918,
        0.5646858215332031,
        1.1175870895385742e-08
      ]
    },
    {
      "children": [
        22
      ],
      "name": "L_Forearm_015",
      "rotation": [
        0.08334796875715256,
        -0.03402894362807274,
        -0.0895884707570076,
        0.9919017553329468
      ],
      "scale": [
        0.9999999403953552,
        1.0,
        0.9999999403953552
      ],
      "translation": [
        -2.6423307986078726e-14,
        0.33275866508483887,
        1.4210854715202004e-14
      ]
    },
    {
      "children": [
        23,
        24
      ],
      "name": "L_Hand_016",
      "rotation": [
        0.009587502107024193,
        0.028245875611901283,
        -0.12963178753852844,
        0.9911134243011475
      ],
      "scale": [
        1.0,
        0.9999999403953552,
        1.0
      ],
      "translation": [
        1.2689270079135895e-08,
        0.21173988282680511,
        -5.587935447692871e-09
      ]
    },
    {
      "name": "L_Hand_01_017",
      "rotation": [
        -0.015730498358607292,
        -0.028414195403456688,
        -0.09502992033958435,
        0.9949444532394409
      ],
      "scale": [
        0.9999999403953552,
        0.9999998807907104,
        0.9999998807907104
      ],
      "translation": [
        -1.0756775736808777e-07,
        0.09350253641605377,
        -6.51925802230835e-09
      ]
    },
    {
      "name": "L_Hand_02_018",
      "rotation": [
        0.19839462637901306,
        0.1029767394065857,
        -0.12346325069665909,
        0.9668465256690979
      ],
      "scale": [
        1.0,
        0.9999998807907104,
        0.9999999403953552
      ],
      "translation": [
        0.020174235105514526,
        0.03949863463640213,
        0.03260636329650879
      ]
    },
    {
      "name": "Armature_Character_Ghost_019",
      "rotation": [
        0.7071068286895752,
        8.429371689544496e-08,
        8.429370268459024e-08,
        0.7071067094802856
      ],
      "translation": [
        1.11701513910133e-37,
        1.862645149230957e-08,
        0.009492218494415283
      ]
    },
    {
      "matrix": [
        -100.0,
        9.536739076561471e-07,
        2.3841856266446566e-06,
        0.0,
        2.3841853121099174e-06,
        -3.2981365245538615e-05,
        99.99999999999729,
        0.0,
        9.536746939930903e-07,
        99.9999999999973,
        3.298136522280124e-05,
        0.0,
        4.768370942542788e-06,
        0.41022109985368616,
        -1.4720661506569324e-05,
        1.0
      ],
      "name": "Object_26"
    },
    {
      "mesh": 0,
      "name": "Object_27",
      "skin": 0
    }
  ],
  "samplers": [
    {
      "magFilter": 9728,
      "minFilter": 9986,
      "wrapS": 10497,
      "wrapT": 10497
    }
  ],
  "scene": 0,
  "scenes": [
    {
      "name": "Sketchfab_Scene",
      "nodes": [
        0
      ]
    }
  ],
  "skins": [
    {
      "inverseBindMatrices": 4,
      "joints": [
        5,
        6,
        7,
        8,
        9,
        10,
        11,
        12,
        13,
        14,
        15,
        16,
        17,
        18,
        19,
        20,
        21,
        22,
        23,
        24,
        25
      ],
      "skeleton": 5
    }
  ],
  "textures": [
    {
      "sampler": 0,
      "source": 0
    }
  ]
}
